STARTFONT 2.1
FONT jis.jis8000.24
SIZE 24 72 72
FONTBOUNDINGBOX 24 24 0 -3
STARTPROPERTIES 4
FONT_DESCENT 3
FONT_ASCENT 21
DEFAULT_CHAR 0
COPYRIGHT "Copyright (c) 1992 AT&T - All rights reserved."
ENDPROPERTIES
CHARS 174
STARTCHAR ch-0
ENCODING 0
SWIDTH 1000 0
DWIDTH 24 0
BBX 24 24 0 -3
BITMAP
0e0306
0c3fff
0c8306
8ce306
4cdf7e
6c8306
6c8306
6d3f7e
0c0306
0c0820
ffcc30
121862
121fff
123840
125844
129ffe
121840
325844
229ffe
239840
271840
421842
401fff
801800
ENDCHAR
STARTCHAR ch-1
ENCODING 1
SWIDTH 1000 0
DWIDTH 24 0
BBX 24 24 0 -3
BITMAP
003800
003020
003038
003330
1ffff0
003060
0030c0
003180
003306
ffffff
000c00
001800
003000
00e060
00c0f0
03c380
0cce00
30f000
c0c004
00c004
00c004
00c006
00fffe
007ffc
ENDCHAR
STARTCHAR ch-3
ENCODING 3
SWIDTH 1000 0
DWIDTH 24 0
BBX 24 24 0 -3
BITMAP
003800
003040
003070
003360
1fffe0
0030c0
003180
003306
ffffff
000c00
001800
003060
01fff0
01c000
038000
078060
0dfff0
318060
c180e0
0000c0
0001c0
000380
003f00
000e00
ENDCHAR
STARTCHAR ch-4
ENCODING 4
SWIDTH 1000 0
DWIDTH 24 0
BBX 24 24 0 -3
BITMAP
007000
006040
006670
1fffe0
0060c0
006186
ffffff
001800
0030c0
0063e0
01fc08
07600c
1c3ffc
e00600
007f00
0fe000
006000
3ffff0
006000
fffffa
006002
006003
007fff
003ffe
ENDCHAR
STARTCHAR ch-5
ENCODING 5
SWIDTH 1000 0
DWIDTH 24 0
BBX 24 24 0 -3
BITMAP
007000
006020
006038
006370
1fffe0
0060c0
006180
006300
006606
ffffff
001800
003000
006030
01fff8
038030
0d8030
318030
c1fff0
018030
018030
018030
018030
01fff0
018030
ENDCHAR
STARTCHAR ch-6
ENCODING 6
SWIDTH 1000 0
DWIDTH 24 0
BBX 24 24 0 -3
BITMAP
007000
006040
006670
1fffe0
0060c0
006186
ffffff
001800
0030c0
0063e0
01fc00
076008
1c600c
e07ffc
003ff8
000000
07fff0
060030
060030
07fff0
060030
060030
07fff0
060030
ENDCHAR
STARTCHAR ch-11
ENCODING 11
SWIDTH 1000 0
DWIDTH 24 0
BBX 24 24 0 -3
BITMAP
007040
006070
1fffe0
0060c0
006186
ffffff
001800
0070c0
01e3e0
0f7c08
f0600c
003ffc
000000
7ffffe
00c080
008060
1fffb0
0f1830
001800
0ffff0
001800
001806
ffffff
000000
ENDCHAR
STARTCHAR ch-12
ENCODING 12
SWIDTH 1000 0
DWIDTH 24 0
BBX 24 24 0 -3
BITMAP
000000
000006
ffffff
003000
003000
002000
20400c
3ffffe
30c30c
30c30c
30c30c
30c30c
30c30c
30c30c
30c30c
30c30c
30c30c
30c30c
30c30c
30c30c
30c30c
30c30c
30c33c
300018
ENDCHAR
STARTCHAR ch-16
ENCODING 16
SWIDTH 1000 0
DWIDTH 24 0
BBX 24 24 0 -3
BITMAP
00001c
000c18
fffe18
030018
020018
02001a
441bff
7ffc18
649818
649818
649918
649898
649898
6498d8
6498d8
6498d8
649818
649818
649818
649818
649818
649818
6078f8
603030
ENDCHAR
STARTCHAR ch-18
ENCODING 18
SWIDTH 1000 0
DWIDTH 24 0
BBX 24 24 0 -3
BITMAP
001c00
001800
001800
00180c
7ffffe
001800
001800
001818
3ffffc
001800
001800
001806
ffffff
007a00
007a00
00d900
00d980
0198c0
031860
061838
0c181f
30180e
c01806
001800
ENDCHAR
STARTCHAR ch-21
ENCODING 21
SWIDTH 1000 0
DWIDTH 24 0
BBX 24 24 0 -3
BITMAP
07039c
060318
060318
064318
7fe318
060318
060ffe
064318
7fe318
060318
060318
062318
fff318
060318
0e1fff
0f0318
1ec318
166318
366318
260618
460618
860418
060818
063018
ENDCHAR
STARTCHAR ch-23
ENCODING 23
SWIDTH 1000 0
DWIDTH 24 0
BBX 24 24 0 -3
BITMAP
07000c
06001e
062070
fff1c0
060f80
060180
064180
7fe18c
060ffe
060180
062180
fff180
060180
0e0186
0f1fff
1ec180
166180
363180
263182
460182
860182
060183
0601ff
0600fe
ENDCHAR
STARTCHAR ch-24
ENCODING 24
SWIDTH 1000 0
DWIDTH 24 0
BBX 24 24 0 -3
BITMAP
0e0000
0c0000
0c000c
0cc7fe
ffe000
0c0000
0c0000
0c8000
7fc000
0c0006
0c0fff
0cc180
ffe180
0c0180
0c0100
1e0100
1d8310
1cc308
2cc20c
2c020c
4c023e
8c1fe6
0c0f06
0c0806
ENDCHAR
STARTCHAR ch-25
ENCODING 25
SWIDTH 1000 0
DWIDTH 24 0
BBX 24 24 0 -3
BITMAP
0e0000
0c080c
0c0ffe
0ccccc
ffeccc
0c0ccc
0c0ccc
0c8ccc
7fcccc
0c0ccc
0c0ccc
0ccccc
ffeffc
0c0c0c
0c0c0c
1e0c00
1d8c00
1ccc00
2ccc02
2c0c02
4c0c02
8c0c03
0c0fff
0c07fe
ENDCHAR
STARTCHAR ch-28
ENCODING 28
SWIDTH 1000 0
DWIDTH 24 0
BBX 24 24 0 -3
BITMAP
0e0000
0c080c
0c0ffe
0ccc0c
ffec0c
0c0c0c
0c0c0c
0c8c0c
7fcc0c
0c0ffc
0c0c0c
0ccc00
ffec00
0c0c0c
0c0ffe
1e0c0c
1d8c0c
1ccc0c
2ccc0c
2c0c0c
4c0c0c
8c0ffc
0c0c0c
0c0c0c
ENDCHAR
STARTCHAR ch-33
ENCODING 33
SWIDTH 1000 0
DWIDTH 24 0
BBX 24 24 0 -3
BITMAP
1c0070
184460
187e60
194460
ffc460
184466
1847ff
1a7c66
7f4466
184466
184466
194466
fffc66
184466
184466
1c4466
3a4446
3b44c6
3b46c6
587c8e
59e18c
98810c
18027c
180418
ENDCHAR
STARTCHAR ch-40
ENCODING 40
SWIDTH 1000 0
DWIDTH 24 0
BBX 24 24 0 -3
BITMAP
1c4006
187fff
186000
196008
ffe7fc
186000
186002
1a7fff
7f6644
186646
18662c
196630
ffefdc
18670f
186406
1c6018
3a7fff
3b6018
3b4418
584218
58c318
988318
190078
180030
ENDCHAR
STARTCHAR ch-51
ENCODING 51
SWIDTH 1000 0
DWIDTH 24 0
BBX 24 24 0 -3
BITMAP
000000
000006
ffffff
0300c0
0300c0
0300c0
0300c0
03ffc0
0300c0
0300c0
0300c0
0300c0
03ffc0
0300c0
0300c0
0300c0
0300c0
0300fe
03ffc0
fff0c0
7e00c0
4000c0
0000c0
0000c0
ENDCHAR
STARTCHAR ch-54
ENCODING 54
SWIDTH 1000 0
DWIDTH 24 0
BBX 24 24 0 -3
BITMAP
001a06
ffffff
186306
186306
18630c
18630c
1fe308
186318
186310
186320
186310
186308
1fe30c
186304
186306
186306
186306
186306
1fe306
fc633e
70630c
406300
006300
006300
ENDCHAR
STARTCHAR ch-59
ENCODING 59
SWIDTH 1000 0
DWIDTH 24 0
BBX 24 24 0 -3
BITMAP
0060e0
fff0c0
3180c0
3180c0
3180c0
3180c0
3180c0
3f8ec0
318ccc
318cfe
318cc0
318cc0
318cc0
3f8cc0
318cc0
318cc0
318cc0
318cc0
338cc0
fd8cc0
718cc0
418cc6
01bfff
018000
ENDCHAR
STARTCHAR ch-61
ENCODING 61
SWIDTH 1000 0
DWIDTH 24 0
BBX 24 24 0 -3
BITMAP
0061c0
fff180
318180
318180
318180
318980
318986
3f9fff
319986
31b184
31b188
318180
318170
3f8160
318360
318360
318260
318260
338660
fd8462
718c62
418863
01907f
01a03e
ENDCHAR
STARTCHAR ch-63
ENCODING 63
SWIDTH 1000 0
DWIDTH 24 0
BBX 24 24 0 -3
BITMAP
0061c0
fff180
318180
318180
318188
31898e
31898c
3f898c
318988
319998
319990
3199c0
318140
3f8140
318340
318360
318320
318230
338230
fd8618
71841c
41840f
01880e
01b006
ENDCHAR
STARTCHAR ch-70
ENCODING 70
SWIDTH 1000 0
DWIDTH 24 0
BBX 24 24 0 -3
BITMAP
006180
fff180
318340
318340
318220
318630
318418
3f881c
31906f
31aff6
318000
318000
31800c
3f9ffe
31830c
31830c
31830c
31830c
33830c
fd837c
718318
418300
018300
018300
ENDCHAR
STARTCHAR ch-74
ENCODING 74
SWIDTH 1000 0
DWIDTH 24 0
BBX 24 24 0 -3
BITMAP
00c100
ffe380
330626
33183f
331026
331226
3313a6
3f1326
331326
331326
331326
331326
331326
3f1326
331326
331326
337f26
333326
33232e
ff0226
730620
430420
030820
033020
ENDCHAR
STARTCHAR ch-82
ENCODING 82
SWIDTH 1000 0
DWIDTH 24 0
BBX 24 24 0 -3
BITMAP
00600c
fff03e
3181f0
319fc0
3180c0
3180c0
3180c0
3f80c6
31bfff
3180c0
3180c0
3180c0
3180c0
3f88cc
318ffe
318c0c
318c0c
318c0c
338c0c
fd8c0c
718c0c
418ffc
018c0c
018c0c
ENDCHAR
STARTCHAR ch-86
ENCODING 86
SWIDTH 1000 0
DWIDTH 24 0
BBX 24 24 0 -3
BITMAP
001800
fffc00
186206
1863ff
1fe306
186306
186306
1fe306
186306
186306
19e3fe
fe6306
706000
400000
000018
3ffffc
001800
001800
1ffff8
001800
001800
001806
ffffff
000000
ENDCHAR
STARTCHAR ch-88
ENCODING 88
SWIDTH 1000 0
DWIDTH 24 0
BBX 24 24 0 -3
BITMAP
0060e0
fff0c0
3180c0
319ffe
3198c6
3198c6
3198c6
3f9ffe
3198c6
3198c6
3198c6
319ffe
318000
3f8000
31bfff
318600
31860c
318ffe
338c0c
fd800c
71801c
418018
0180f8
018030
ENDCHAR
STARTCHAR ch-90
ENCODING 90
SWIDTH 1000 0
DWIDTH 24 0
BBX 24 24 0 -3
BITMAP
003000
fff80c
18c3fe
18c00c
1fc01c
18c318
18c0b0
1fc060
18c0d8
18f18c
ffc606
78c006
40c180
020fc0
077808
0e181c
181c30
611a40
039980
0718c0
0c1870
30183f
c0180e
001800
ENDCHAR
STARTCHAR ch-94
ENCODING 94
SWIDTH 1000 0
DWIDTH 24 0
BBX 24 24 0 -3
BITMAP
406406
7ff7ff
606606
606606
7fe7fe
606606
606606
7fe7fe
600006
600006
67ffe6
608106
608106
60ff06
608106
608106
60ff06
608106
608106
67ff06
63e106
620106
60013e
60000c
ENDCHAR
STARTCHAR ch-95
ENCODING 95
SWIDTH 1000 0
DWIDTH 24 0
BBX 24 24 0 -3
BITMAP
100000
1c0000
18620c
1ff3fe
23030c
03130c
fffb0c
06030c
07830c
0ce3fc
18730c
603000
000006
ffffff
0300c0
03ffc0
0300c0
03ffc0
0300c0
0300c0
7ffffe
3fc0c0
2000c0
0000c0
ENDCHAR
STARTCHAR ch-97
ENCODING 97
SWIDTH 1000 0
DWIDTH 24 0
BBX 24 24 0 -3
BITMAP
006400
fff720
318618
31860c
318c06
318906
3191c0
3fa180
318110
318108
31820c
319ff6
3f8f06
318800
318080
318040
318368
338b64
3d8b06
f98b13
619313
41b318
01b3f8
0181f0
ENDCHAR
STARTCHAR ch-98
ENCODING 98
SWIDTH 1000 0
DWIDTH 24 0
BBX 24 24 0 -3
BITMAP
00c0e0
ffe0c0
3188c0
3188c6
318fff
319806
319804
3f8000
31800c
319ffe
3180c0
3180c0
3180c0
3f88c0
318ecc
318cfe
318cc0
318cc0
338cc0
fd8ac0
7199c0
4190e0
01907f
01a01e
ENDCHAR
STARTCHAR ch-104
ENCODING 104
SWIDTH 1000 0
DWIDTH 24 0
BBX 24 24 0 -3
BITMAP
018408
ffc60c
330c18
3350a0
332244
333366
33162c
3f0c18
330810
331224
337ffe
333162
330000
3f0e38
330c30
330c32
337fff
330c30
330c30
ff0830
731830
431030
032030
034030
ENDCHAR
STARTCHAR ch-111
ENCODING 111
SWIDTH 1000 0
DWIDTH 24 0
BBX 24 24 0 -3
BITMAP
00c408
ffe60c
330408
334890
333264
331326
3f060c
330408
330912
337fff
3331b3
332020
3f0000
332662
332662
332662
332662
332662
ff3e7e
732462
430c62
030860
031060
036060
ENDCHAR
STARTCHAR ch-112
ENCODING 112
SWIDTH 1000 0
DWIDTH 24 0
BBX 24 24 0 -3
BITMAP
018400
ffc700
33260c
333ffe
33310c
3331ec
33352c
3f326c
33354c
33308c
33314c
33326c
33342c
3f300c
333ffc
33300c
330100
330688
3316c6
ff16d3
733613
436618
0367f8
0303f0
ENDCHAR
STARTCHAR ch-114
ENCODING 114
SWIDTH 1000 0
DWIDTH 24 0
BBX 24 24 0 -3
BITMAP
038230
0303f8
7ffb30
030330
3ff23e
00041e
3ff000
3337fc
333218
3ff130
3000c0
200730
60001f
5ffff6
8300c0
03ffc0
0300c0
03ffc0
0300c0
0300c0
7ffffc
3fe0c0
2000c0
0000c0
ENDCHAR
STARTCHAR ch-115
ENCODING 115
SWIDTH 1000 0
DWIDTH 24 0
BBX 24 24 0 -3
BITMAP
022020
071838
0e0c30
380c46
c2ffff
070180
0e2180
3c39fe
cc3180
0c6980
0c47ff
0c80fe
000000
ffffff
0300c0
03ffc0
0300c0
03ffc0
0300c0
0300c0
7ffffe
3fc0c0
2000c0
0000c0
ENDCHAR
STARTCHAR ch-116
ENCODING 116
SWIDTH 1000 0
DWIDTH 24 0
BBX 24 24 0 -3
BITMAP
00c1c0
ffe180
330186
337fff
330180
330180
33218c
3f3ffe
33324c
33324c
33324c
33324c
333ffc
3f300c
330080
330740
330668
331664
331606
ff3613
733613
436618
0367f8
0303f0
ENDCHAR
STARTCHAR ch-118
ENCODING 118
SWIDTH 1000 0
DWIDTH 24 0
BBX 24 24 0 -3
BITMAP
000018
3ffffc
010180
01ff80
010180
01ff80
010180
0101f8
3fff80
0f0180
000180
003006
ffffff
10c218
1fc3f8
10c218
10c218
1fc3f8
10c218
10c218
1fc3f8
f8df18
40c818
00c018
ENDCHAR
STARTCHAR ch-119
ENCODING 119
SWIDTH 1000 0
DWIDTH 24 0
BBX 24 24 0 -3
BITMAP
031c70
ff9860
661968
66ffe4
660266
664366
7e2660
662460
660866
67ffff
660060
664264
7e7f67
664266
66422c
664228
667e38
664212
6e423a
f6422a
667e6e
4640c6
060187
060603
ENDCHAR
STARTCHAR ch-121
ENCODING 121
SWIDTH 1000 0
DWIDTH 24 0
BBX 24 24 0 -3
BITMAP
0181c0
ffc180
332186
333fff
336004
336080
330646
3f1653
33361b
3333f8
330000
330000
333ffe
3f2222
332222
333ffe
330000
330006
337fff
ff00c0
7300c0
4300c0
0307c0
030180
ENDCHAR
STARTCHAR ch-125
ENCODING 125
SWIDTH 1000 0
DWIDTH 24 0
BBX 24 24 0 -3
BITMAP
00c0e0
ffe0c0
3180c6
31bfff
3f80c0
3190c6
319fff
3f9926
319926
319926
ff9ffe
719806
418000
018006
7dbfff
118000
1180c0
7d8360
118b64
118b02
1d9b13
f1b31b
41b3f8
0181f0
ENDCHAR
STARTCHAR ch-126
ENCODING 126
SWIDTH 1000 0
DWIDTH 24 0
BBX 24 24 0 -3
BITMAP
030304
7ff3fe
10c300
1883fc
fff804
0003fc
1fc200
1043f8
1fc200
1043f8
1fc200
1043fa
11c203
10c1ff
000000
ffffff
020040
03ffc0
020040
03ffc0
020046
03ffff
fe0040
000040
ENDCHAR
STARTCHAR ch-127
ENCODING 127
SWIDTH 1000 0
DWIDTH 24 0
BBX 24 24 0 -3
BITMAP
001c00
001800
001830
0ffff8
001830
001836
ffffff
001830
001830
001830
0ffff0
001830
001800
001830
1ffff8
001800
001800
001806
ffffff
001800
001800
001800
001800
001800
ENDCHAR
STARTCHAR ch-132
ENCODING 132
SWIDTH 1000 0
DWIDTH 24 0
BBX 24 24 0 -3
BITMAP
3801c0
318180
33c18c
361ffe
38018c
30818c
30ffff
3fc18c
1f818c
20018c
381ffc
308180
3fc180
66018c
861ffe
064180
ffe180
0c0186
0c3fff
1b0180
198180
318180
600180
800180
ENDCHAR
STARTCHAR ch-133
ENCODING 133
SWIDTH 1000 0
DWIDTH 24 0
BBX 24 24 0 -3
BITMAP
001c00
001818
1ffffc
001818
00181a
ffffff
001818
001818
1ffff8
001800
001800
1c991c
189918
1f99f8
181818
181818
1ffff8
181818
181818
1f99f8
109918
309918
209918
401818
ENDCHAR
STARTCHAR ch-134
ENCODING 134
SWIDTH 1000 0
DWIDTH 24 0
BBX 24 24 0 -3
BITMAP
0000e0
10c0c0
1fe0cc
1807fe
1800cc
1980cc
1fcfff
1800cc
1800cc
1980cc
1fc7fc
1800c0
1800c0
1860cc
fff7fe
1800c0
1800c0
1100c6
308fff
20c0c0
ffe0c0
7860c0
4060c0
0000c0
ENDCHAR
STARTCHAR ch-135
ENCODING 135
SWIDTH 1000 0
DWIDTH 24 0
BBX 24 24 0 -3
BITMAP
006400
7ff700
000606
0007ff
3fec30
306a60
307140
3fe080
200360
601c3f
40180e
8fffe0
001820
001826
ffffff
001820
001820
0fffe0
001800
3ffffc
001800
ffffff
001800
001800
ENDCHAR
STARTCHAR ch-137
ENCODING 137
SWIDTH 1000 0
DWIDTH 24 0
BBX 24 24 0 -3
BITMAP
001c00
001800
001800
20180c
3ffffe
30300c
30300c
30680c
30460c
30830c
31018c
32398c
30300c
30300c
30680c
30460c
30830c
31018c
32018c
30000c
30000c
30000c
30007c
300018
ENDCHAR
STARTCHAR ch-139
ENCODING 139
SWIDTH 1000 0
DWIDTH 24 0
BBX 24 24 0 -3
BITMAP
20c380
3fe300
30c300
30c300
30c300
30c300
30c30c
3fdffe
30c30c
30c30c
30c30c
30c30c
30c30c
3fc30c
30c30c
30c30c
30c60c
30c60c
30c60c
30c40c
20cc1c
60c818
47d0f8
81a030
ENDCHAR
STARTCHAR ch-140
ENCODING 140
SWIDTH 1000 0
DWIDTH 24 0
BBX 24 24 0 -3
BITMAP
218860
3fcff0
318c60
318c60
318c60
318c60
318c60
3f8c60
318c60
318c60
318c60
318c60
318c60
3f8c60
318c60
318c60
318c60
318c60
318c62
218862
219862
619063
47a07f
83403e
ENDCHAR
STARTCHAR ch-147
ENCODING 147
SWIDTH 1000 0
DWIDTH 24 0
BBX 24 24 0 -3
BITMAP
001c00
001800
001806
ffffff
0c0000
0c0000
0c0000
0c0000
0ffff8
07fff8
000000
040060
07fff0
060060
060060
07ffe0
060060
060060
07ffe0
060060
060060
060060
0603e0
0600c0
ENDCHAR
STARTCHAR ch-150
ENCODING 150
SWIDTH 1000 0
DWIDTH 24 0
BBX 24 24 0 -3
BITMAP
001c00
101820
0c1838
061870
071860
0318c0
031880
001900
081830
0ffff8
0c0030
0c0030
0c0030
0ffff0
0c0030
0c0030
0c0030
0ffff0
0c0030
0c0030
0c0030
0c0030
0c01f0
0c0060
ENDCHAR
STARTCHAR ch-152
ENCODING 152
SWIDTH 1000 0
DWIDTH 24 0
BBX 24 24 0 -3
BITMAP
218038
3fc030
318030
318030
318030
318030
318036
3fbfff
318030
318030
319030
318c30
318630
3f8630
318630
318030
318030
318030
318030
218030
218030
618030
4f81f0
830060
ENDCHAR
STARTCHAR ch-154
ENCODING 154
SWIDTH 1000 0
DWIDTH 24 0
BBX 24 24 0 -3
BITMAP
2181c0
3fc180
318180
318180
318180
318180
318180
3f8180
31818c
319ffe
318180
318180
318180
3f8180
318180
318180
318180
318180
318180
218180
218180
618186
47bfff
830000
ENDCHAR
STARTCHAR ch-155
ENCODING 155
SWIDTH 1000 0
DWIDTH 24 0
BBX 24 24 0 -3
BITMAP
218000
3fc00c
319ffe
318180
318180
318180
318180
3f8180
318180
318180
318180
318180
318180
3f8180
318180
318180
318180
318180
318180
218180
218180
618186
47bfff
830000
ENDCHAR
STARTCHAR ch-157
ENCODING 157
SWIDTH 1000 0
DWIDTH 24 0
BBX 24 24 0 -3
BITMAP
218000
3fc00c
31bffe
318180
318180
318180
318180
3f8180
318180
318180
318186
31ffff
318180
3f8180
318180
318180
318180
318180
618180
618180
618180
418180
4f8180
830180
ENDCHAR
STARTCHAR ch-161
ENCODING 161
SWIDTH 1000 0
DWIDTH 24 0
BBX 24 24 0 -3
BITMAP
218430
3fc7f8
318630
318630
318630
318630
318430
3f8c3f
31881f
319000
318000
31800c
319ffe
3f840c
318218
318218
318130
3181e0
3180c0
2181e0
218338
61861f
4f8c0e
833006
ENDCHAR
STARTCHAR ch-162
ENCODING 162
SWIDTH 1000 0
DWIDTH 24 0
BBX 24 24 0 -3
BITMAP
2181c0
3fc180
318180
318180
318186
31ffff
318180
3f8180
318180
31818c
31bffe
31840c
318418
3f8418
318230
318230
318360
3181c0
318080
3181c0
218370
61863f
4f981e
836006
ENDCHAR
STARTCHAR ch-165
ENCODING 165
SWIDTH 1000 0
DWIDTH 24 0
BBX 24 24 0 -3
BITMAP
218000
3fd00c
319ffe
31988c
31988c
31988c
31988c
3f988c
31988c
31988c
31988c
319ffc
31980c
3f980c
319800
319800
319800
319802
319802
219802
219803
619fff
478ffe
830000
ENDCHAR
STARTCHAR ch-169
ENCODING 169
SWIDTH 1000 0
DWIDTH 24 0
BBX 24 24 0 -3
BITMAP
000006
ffffff
000000
10000c
1ffffe
18000c
18000c
1ffffc
18000c
180000
19fff8
198018
198018
198018
19fff8
198018
318018
318018
31fff8
218018
618018
418018
8180f8
018030
ENDCHAR
STARTCHAR ch-170
ENCODING 170
SWIDTH 1000 0
DWIDTH 24 0
BBX 24 24 0 -3
BITMAP
2181c0
3fc180
318180
318180
318186
31bfff
318300
3f8300
318300
31830c
3183fe
31830c
31830c
3f830c
31830c
31830c
31860c
31860c
21860c
21841c
618c18
418818
4f90f8
832030
ENDCHAR
STARTCHAR ch-172
ENCODING 172
SWIDTH 1000 0
DWIDTH 24 0
BBX 24 24 0 -3
BITMAP
218380
3fc320
318318
31830c
31830c
318300
318306
3fbfff
318300
318300
318300
318370
318360
3f8760
318660
318660
318660
318460
318c62
218862
219862
619063
47a07f
83003e
ENDCHAR
STARTCHAR ch-173
ENCODING 173
SWIDTH 1000 0
DWIDTH 24 0
BBX 24 24 0 -3
BITMAP
2301c0
3f8180
330180
330180
330180
332186
333fff
3f3186
333186
333186
333186
333346
333326
3f3226
333636
333436
333836
333006
333006
233006
233006
633006
4f303e
86300c
ENDCHAR
STARTCHAR ch-175
ENCODING 175
SWIDTH 1000 0
DWIDTH 24 0
BBX 24 24 0 -3
BITMAP
001c00
001800
071860
061ff0
061800
061800
061806
ffffff
000000
000000
07ffe0
060060
060060
060060
07ffe0
060060
060060
060060
07ffe0
060060
060060
060060
0603e0
0600c0
ENDCHAR
STARTCHAR ch-177
ENCODING 177
SWIDTH 1000 0
DWIDTH 24 0
BBX 24 24 0 -3
BITMAP
218380
3fc300
318300
318300
318300
318306
31bfff
3f8300
318300
318340
318670
318660
318660
3f8660
318c40
318cc0
3188c0
319880
219090
21a108
61c10c
419ff6
4f8f06
830806
ENDCHAR
STARTCHAR ch-178
ENCODING 178
SWIDTH 1000 0
DWIDTH 24 0
BBX 24 24 0 -3
BITMAP
001c00
001800
001806
ffffff
00c080
008060
010038
3fffdc
1fe00c
10000c
040060
07fff0
060060
060060
07ffe0
060060
060060
07ffe0
060060
060060
060060
060060
0603e0
0600c0
ENDCHAR
STARTCHAR ch-180
ENCODING 180
SWIDTH 1000 0
DWIDTH 24 0
BBX 24 24 0 -3
BITMAP
000060
0781f0
007780
001e00
0073c0
03c0f0
3c2030
003800
003006
ffffff
006000
00c030
01fff8
030030
070030
1bfff0
630030
030030
03fff0
030030
030030
030030
0301f0
030060
ENDCHAR
STARTCHAR ch-186
ENCODING 186
SWIDTH 1000 0
DWIDTH 24 0
BBX 24 24 0 -3
BITMAP
2181c0
3fc180
318180
318186
31ffff
318180
318180
3f8180
31918c
319ffe
31998c
31998c
31998c
3f998c
31998c
31998c
31998c
31998c
2199bc
219998
618180
418180
4f8180
830180
ENDCHAR
STARTCHAR ch-195
ENCODING 195
SWIDTH 1000 0
DWIDTH 24 0
BBX 24 24 0 -3
BITMAP
20000c
3ffffe
30180c
30180c
3ffffc
30180c
30180c
30180c
3ffffc
30000c
000000
0ffff0
0c0030
0c0030
0ffff0
0c0030
0c0030
0c0030
0ffff0
0c0030
0c0030
0c0030
0c01f0
0c0060
ENDCHAR
STARTCHAR ch-196
ENCODING 196
SWIDTH 1000 0
DWIDTH 24 0
BBX 24 24 0 -3
BITMAP
001c00
001800
20180c
3ffffe
30180c
30180c
3ffffc
30180c
30180c
3ffffc
30000c
000000
0ffff0
0c0030
0c0030
0ffff0
0c0030
0c0030
0ffff0
0c0030
0c0030
0c0030
0c01f0
0c0060
ENDCHAR
STARTCHAR ch-198
ENCODING 198
SWIDTH 1000 0
DWIDTH 24 0
BBX 24 24 0 -3
BITMAP
218818
3fcffc
318c18
318c18
318c18
318c18
318c18
3f8c18
318ff8
318c18
318c18
318c18
318c18
3f8c18
318c18
318c18
318ff8
318c18
318c18
218000
218000
618006
47bfff
830000
ENDCHAR
STARTCHAR ch-204
ENCODING 204
SWIDTH 1000 0
DWIDTH 24 0
BBX 24 24 0 -3
BITMAP
00e700
00c60c
00c61e
ffc670
00c780
00c602
03c602
fec603
70c7ff
40c3fe
000000
040060
07fff0
060060
060060
07ffe0
060060
060060
07ffe0
060060
060060
060060
0603e0
0600c0
ENDCHAR
STARTCHAR ch-206
ENCODING 206
SWIDTH 1000 0
DWIDTH 24 0
BBX 24 24 0 -3
BITMAP
218100
3fc1c0
318180
318180
318100
318308
318204
3f8206
31843b
31bfc3
319e03
319000
318000
3f880c
318ffe
318c0c
318c0c
318c0c
318c0c
218c0c
218c0c
618ffc
478c0c
830c0c
ENDCHAR
STARTCHAR ch-214
ENCODING 214
SWIDTH 1000 0
DWIDTH 24 0
BBX 24 24 0 -3
BITMAP
2181c0
3fa188
31918e
31998c
318d98
318d90
3181a0
3f818c
31bffe
318180
318180
318180
318180
3f8186
31ffff
318180
318180
318180
318180
218180
218180
618180
478180
830180
ENDCHAR
STARTCHAR ch-217
ENCODING 217
SWIDTH 1000 0
DWIDTH 24 0
BBX 24 24 0 -3
BITMAP
218400
3fc700
318600
318600
318c06
318fff
318980
3f9980
319180
31a18c
3181fe
318180
318180
3f8180
318186
3181ff
318180
318180
318180
218180
218180
618180
478180
830180
ENDCHAR
STARTCHAR ch-218
ENCODING 218
SWIDTH 1000 0
DWIDTH 24 0
BBX 24 24 0 -3
BITMAP
218000
3fc00c
319ffe
318040
318070
3180e0
3180c0
3f81c0
318180
318380
318390
31878c
318586
3f8987
319183
31a183
318180
318180
318180
218180
218180
618006
47bfff
830000
ENDCHAR
STARTCHAR ch-219
ENCODING 219
SWIDTH 1000 0
DWIDTH 24 0
BBX 24 24 0 -3
BITMAP
219006
3fdfff
3198c6
3198c6
3198c6
3198c6
3198c6
3f9ffe
3198c6
3198c6
3198c6
3198c6
3198c6
3f9ffe
3198c6
3198c6
3180c0
3180c0
3180c0
2180c0
2180c0
6180c0
4780c0
8300c0
ENDCHAR
STARTCHAR ch-221
ENCODING 221
SWIDTH 1000 0
DWIDTH 24 0
BBX 24 24 0 -3
BITMAP
21800c
3fc03e
3188f0
318fe0
318c60
318c60
318c60
3f8c60
318c66
318fff
318c60
318c60
318c60
3f8c60
318c30
318c30
318c32
318c32
31bf9a
219c1a
21900e
61800e
47bfc7
830003
ENDCHAR
STARTCHAR ch-222
ENCODING 222
SWIDTH 1000 0
DWIDTH 24 0
BBX 24 24 0 -3
BITMAP
218800
3fce00
318c00
318c0c
318ffe
31880c
31980c
3f900c
319f8c
31a18c
31c18c
31818c
31818c
3f918c
319f8c
31981c
319818
3198f8
319832
219802
219802
619803
479fff
830ffe
ENDCHAR
STARTCHAR ch-225
ENCODING 225
SWIDTH 1000 0
DWIDTH 24 0
BBX 24 24 0 -3
BITMAP
070206
0603ff
060306
060306
060306
063306
fffb06
0603fe
060306
060306
060306
060306
266306
3ff3fe
306306
306306
306306
306306
306306
306606
3fe606
306406
30083e
00300c
ENDCHAR
STARTCHAR ch-228
ENCODING 228
SWIDTH 1000 0
DWIDTH 24 0
BBX 24 24 0 -3
BITMAP
1c2070
183860
183060
1a4860
198e60
18cc60
187860
183460
182260
184360
1bff60
19c360
180060
19fe60
198660
198660
19fe60
198660
198662
31fe62
318662
218663
419e7f
818c3e
ENDCHAR
STARTCHAR ch-229
ENCODING 229
SWIDTH 1000 0
DWIDTH 24 0
BBX 24 24 0 -3
BITMAP
000006
ffffff
001806
041804
071818
061ffc
061800
0d1800
0cd800
183fff
3007fe
c00000
080030
0ffff8
0c0030
0c0030
0ffff0
0c0030
0c0030
0ffff0
0c0030
0c0030
0c01f0
0c0060
ENDCHAR
STARTCHAR ch-239
ENCODING 239
SWIDTH 1000 0
DWIDTH 24 0
BBX 24 24 0 -3
BITMAP
230380
3f8300
330300
330306
337fff
330640
330620
3f0c30
330818
3310cf
332fe6
334000
33000c
3f7ffe
330c00
330c18
331ffc
331818
330018
230038
230030
630070
4f03e0
8600c0
ENDCHAR
STARTCHAR ch-241
ENCODING 241
SWIDTH 1000 0
DWIDTH 24 0
BBX 24 24 0 -3
BITMAP
2181c0
3fc180
318184
31a187
319186
31998c
318d88
3f8d90
318180
318186
31ffff
318660
318660
3f8660
318660
318660
318660
318660
318c62
218c62
218862
619863
47907f
83203e
ENDCHAR
STARTCHAR ch-244
ENCODING 244
SWIDTH 1000 0
DWIDTH 24 0
BBX 24 24 0 -3
BITMAP
232006
3f3fff
333006
333006
333066
3337f6
333006
3f3006
333006
333226
3333f6
333226
333226
3f3226
333226
333226
3333e6
333226
333006
233006
233006
633006
4f303e
86300c
ENDCHAR
STARTCHAR ch-248
ENCODING 248
SWIDTH 1000 0
DWIDTH 24 0
BBX 24 24 0 -3
BITMAP
230800
3f8e00
330c00
330c00
331806
331fff
333006
3f2106
3341c6
330186
3329a6
332526
332326
332226
3f2726
3325a6
3329a6
333026
332026
233fe6
23202e
63000c
4f007c
860018
ENDCHAR
STARTCHAR ch-252
ENCODING 252
SWIDTH 1000 0
DWIDTH 24 0
BBX 24 24 0 -3
BITMAP
218010
3fc81c
318618
318330
318320
31804c
319ffe
3f8630
318630
318630
318630
318636
31bfff
3f8630
318630
318630
318630
318630
318630
218c30
218c30
618830
479030
832030
ENDCHAR
STARTCHAR ch-253
ENCODING 253
SWIDTH 1000 0
DWIDTH 24 0
BBX 24 24 0 -3
BITMAP
080380
0e0300
0c430c
08231e
103330
ffdbc0
781b02
400302
206303
3ff3ff
3061fe
306000
306000
3fe380
306300
30630c
30631e
3fe330
3063c0
306302
306302
306303
33e3ff
30c1fe
ENDCHAR
STARTCHAR ch-258
ENCODING 258
SWIDTH 1000 0
DWIDTH 24 0
BBX 24 24 0 -3
BITMAP
219c00
3fd818
31983c
3198f0
319f80
319802
319802
3f9803
319fff
318ffe
318000
318000
31880c
3f8ffe
318c0c
318c0c
318c0c
318ffc
318c0c
318c0c
218c0c
618c0c
4f8ffc
830c0c
ENDCHAR
STARTCHAR ch-261
ENCODING 261
SWIDTH 1000 0
DWIDTH 24 0
BBX 24 24 0 -3
BITMAP
003800
003060
1ffff0
006060
01c0e0
0707c0
380180
030030
fff7fe
063066
0630c6
0cf19e
18660c
600000
07fff0
060030
07fff0
060030
060030
07fff0
060030
060030
0601f0
060060
ENDCHAR
STARTCHAR ch-262
ENCODING 262
SWIDTH 1000 0
DWIDTH 24 0
BBX 24 24 0 -3
BITMAP
230400
3f8630
330ff8
330c60
3318c0
333106
335fff
3f9800
331800
33190c
3319fe
33198c
33198c
3f198c
33198c
33198c
3319bc
331998
331180
231182
233182
632183
4f21ff
8640fe
ENDCHAR
STARTCHAR ch-263
ENCODING 263
SWIDTH 1000 0
DWIDTH 24 0
BBX 24 24 0 -3
BITMAP
430380
7f8300
63030c
633ffe
63030c
63060c
63061c
7f0c18
6318f8
636030
630000
631830
631020
7f1226
63feff
631226
631226
631226
633266
632246
432246
4366c6
4f5c9e
868d0c
ENDCHAR
STARTCHAR ch-264
ENCODING 264
SWIDTH 1000 0
DWIDTH 24 0
BBX 24 24 0 -3
BITMAP
230018
3f807c
3323e0
333e00
33300c
33323e
3333e0
3f3300
333304
333307
33330e
333398
3333a0
3f3340
333340
333320
333320
332330
232318
23631c
63430f
43830e
4f0306
860300
ENDCHAR
STARTCHAR ch-265
ENCODING 265
SWIDTH 1000 0
DWIDTH 24 0
BBX 24 24 0 -3
BITMAP
230400
3f8300
3301c0
3300c0
330000
330180
333fc0
3f0188
33018e
33018c
330dc8
337dd0
330da0
3f0da0
330db0
330990
331998
331998
33118c
23318f
232186
634186
4f0780
860300
ENDCHAR
STARTCHAR ch-266
ENCODING 266
SWIDTH 1000 0
DWIDTH 24 0
BBX 24 24 0 -3
BITMAP
001c00
001800
021804
7f34fe
003400
026204
7f62fe
00c100
018180
0300c0
060070
0bffff
3300de
c300c6
03ffc0
0300c0
0300c0
0300c0
03ffc0
0300c0
0300c0
0300c0
0307c0
030180
ENDCHAR
STARTCHAR ch-282
ENCODING 282
SWIDTH 1000 0
DWIDTH 24 0
BBX 24 24 0 -3
BITMAP
231c46
3f987f
331866
331866
331966
33ffe6
331866
3f1866
331866
331966
33ffe6
331066
331c66
3f1866
331866
331066
332466
332266
63ff7e
63736c
634360
430060
5f0060
860060
ENDCHAR
STARTCHAR ch-283
ENCODING 283
SWIDTH 1000 0
DWIDTH 24 0
BBX 24 24 0 -3
BITMAP
230000
3f8006
337fff
330000
330888
330ccc
331998
3f1110
332220
331110
331998
330ccc
330ccc
3f0000
33000c
333ffe
330180
330180
330180
230180
230180
630186
4f7fff
860000
ENDCHAR
STARTCHAR ch-291
ENCODING 291
SWIDTH 1000 0
DWIDTH 24 0
BBX 24 24 0 -3
BITMAP
10000c
1ffffe
180000
19fff0
180000
180006
1fffff
18c410
18c238
30c1a0
33fcf0
21c03f
40000e
87fff0
060030
060030
07fff0
060030
060030
07fff0
060030
060030
0601f0
060060
ENDCHAR
STARTCHAR ch-297
ENCODING 297
SWIDTH 1000 0
DWIDTH 24 0
BBX 24 24 0 -3
BITMAP
040800
070e00
060c0c
0e0ffe
0c1830
0d9430
19a460
1982c0
398180
398360
59863f
99980e
19eff8
198c18
198c18
198ff8
198c18
198c18
198ff8
198c18
180c18
180c18
180cf8
180c30
ENDCHAR
STARTCHAR ch-303
ENCODING 303
SWIDTH 1000 0
DWIDTH 24 0
BBX 24 24 0 -3
BITMAP
2301d0
3f818c
330184
330180
33ffff
330180
330180
3f218c
333ffe
33318c
33318c
33318c
333ffc
3f318c
33318c
33318c
333ffc
33318c
33318c
23318c
23318c
63318c
4f31bc
863018
ENDCHAR
STARTCHAR ch-305
ENCODING 305
SWIDTH 1000 0
DWIDTH 24 0
BBX 24 24 0 -3
BITMAP
219010
3fc81c
318c18
318630
318620
31904c
319ffe
3f980c
31980c
31980c
31980c
31980c
319ffc
3f986c
318460
318760
318660
318660
318662
318462
218c62
618863
4f907f
83603e
ENDCHAR
STARTCHAR ch-307
ENCODING 307
SWIDTH 1000 0
DWIDTH 24 0
BBX 24 24 0 -3
BITMAP
230204
3fa107
331186
3318c6
330cc4
330c0c
330008
3f0010
330000
330000
333847
333076
333466
3f3246
3331c6
333086
3331c6
333166
333236
233436
633006
433ffe
4f3006
863006
ENDCHAR
STARTCHAR ch-313
ENCODING 313
SWIDTH 1000 0
DWIDTH 24 0
BBX 24 24 0 -3
BITMAP
21880c
3fcffe
318c00
318c00
318c18
318ffc
318c00
3f8c00
318c18
318ffc
318c00
318c00
318c06
3fffff
318c88
318c8c
318c48
318c50
318c20
218cb0
218f18
61fc1f
47b00e
832006
ENDCHAR
STARTCHAR ch-318
ENCODING 318
SWIDTH 1000 0
DWIDTH 24 0
BBX 24 24 0 -3
BITMAP
230200
3f8380
332306
333fff
333186
333186
333186
3f3ffe
333186
333186
333186
333ffe
330400
3f0600
330ce0
3310c0
3300c6
337fff
3300c0
2300c0
2300c0
6300c0
4f00c0
8600c0
ENDCHAR
STARTCHAR ch-326
ENCODING 326
SWIDTH 1000 0
DWIDTH 24 0
BBX 24 24 0 -3
BITMAP
230360
3f8240
330240
33224c
333ffe
33324c
33324c
3f324c
33324c
33324c
333ffc
33324c
33324c
3f324c
33324c
33324e
33ffff
330000
330800
230e20
230c18
63180c
4f300e
864006
ENDCHAR
STARTCHAR ch-331
ENCODING 331
SWIDTH 1000 0
DWIDTH 24 0
BBX 24 24 0 -3
BITMAP
2301c0
3f8180
330180
330186
337fff
330880
330ce0
3f0cc0
3318cc
3318fe
33188c
33394c
333928
3f5a18
339d10
3318b0
3318e0
331840
3318e0
2318b0
231918
631a1f
4f180e
861806
ENDCHAR
STARTCHAR ch-334
ENCODING 334
SWIDTH 1000 0
DWIDTH 24 0
BBX 24 24 0 -3
BITMAP
206000
3ff00c
310ffe
31020c
3fe118
306110
3060a0
3fe040
3100a0
310318
3fec0f
300006
040060
07fff0
060060
060060
07ffe0
060060
060060
07ffe0
060060
060060
0603e0
0600c0
ENDCHAR
STARTCHAR ch-336
ENCODING 336
SWIDTH 1000 0
DWIDTH 24 0
BBX 24 24 0 -3
BITMAP
001c00
201806
3fffff
302000
307070
306064
30dffe
31c860
36c460
30c460
30c1e0
30ccc0
300c00
33fff8
331818
331618
232198
234c98
630818
431618
432198
834098
030078
030030
ENDCHAR
STARTCHAR ch-337
ENCODING 337
SWIDTH 1000 0
DWIDTH 24 0
BBX 24 24 0 -3
BITMAP
2601c0
3f0180
264186
267fff
264000
264400
26471c
3e4618
264618
26461a
264dff
264c18
264c18
3e5d18
266c98
264cd8
264cd8
26cc18
268c18
668c18
470c18
460c18
5e0cf8
8c0c30
ENDCHAR
STARTCHAR ch-339
ENCODING 339
SWIDTH 1000 0
DWIDTH 24 0
BBX 24 24 0 -3
BITMAP
230770
3f8660
330660
330660
330666
337e7f
330660
3f0660
330660
330666
337e7f
330660
330660
3f0660
330660
331e66
33767f
332660
330660
230c60
230c60
630860
4f1060
862060
ENDCHAR
STARTCHAR ch-340
ENCODING 340
SWIDTH 1000 0
DWIDTH 24 0
BBX 24 24 0 -3
BITMAP
2301c0
3f8180
331180
331186
333fff
333666
336664
3f6668
330460
330c60
33087e
33103e
332000
3f0000
330018
331ffc
330180
330180
230180
230180
630180
430186
4f7fff
860000
ENDCHAR
STARTCHAR ch-341
ENCODING 341
SWIDTH 1000 0
DWIDTH 24 0
BBX 24 24 0 -3
BITMAP
2301c0
3f8180
332180
332186
333fff
336006
336004
3f1c00
33188c
3318fe
331ecc
3312cc
3332cc
3f2acc
332acc
3346cc
3304dc
330ccc
3308c0
2318c2
2310c2
6320c3
4f40ff
86807e
ENDCHAR
STARTCHAR ch-351
ENCODING 351
SWIDTH 1000 0
DWIDTH 24 0
BBX 24 24 0 -3
BITMAP
2301c0
3f8180
332186
333fff
336006
336004
330000
3f3ffe
330300
330200
330610
33040c
333ff6
3f1c06
3301c0
330180
33018c
333ffe
330180
230180
230180
630186
4f7fff
860000
ENDCHAR
STARTCHAR ch-357
ENCODING 357
SWIDTH 1000 0
DWIDTH 24 0
BBX 24 24 0 -3
BITMAP
21880c
3fcffe
318c0c
318c0c
318c0c
318ffc
318c0c
3f8c0c
318c0c
318ffc
318000
3188e0
318ec0
3f8ccc
318ffe
3198c0
3190c0
31a0d8
3187fc
2180c0
2180c0
6180c6
47bfff
830000
ENDCHAR
STARTCHAR ch-358
ENCODING 358
SWIDTH 1000 0
DWIDTH 24 0
BBX 24 24 0 -3
BITMAP
230884
3f8ee7
330cc6
33198c
331110
332220
331110
3f198c
330cc6
330cc6
330200
332306
333fff
3f3006
333026
333236
333166
3330c6
333166
233236
233436
633006
4f3ffe
863006
ENDCHAR
STARTCHAR ch-363
ENCODING 363
SWIDTH 1000 0
DWIDTH 24 0
BBX 24 24 0 -3
BITMAP
230018
3f81fc
333f80
330180
330186
33ffff
330180
3f0180
333ffc
33318c
33318c
333ffc
33318c
3f318c
33318c
333ffc
330180
33018c
337ffe
330180
230180
630186
4fffff
860000
ENDCHAR
STARTCHAR ch-366
ENCODING 366
SWIDTH 1000 0
DWIDTH 24 0
BBX 24 24 0 -3
BITMAP
219006
3fdfff
3198c6
3198c6
3198c6
3198c6
319ffe
3f98c6
3198c6
3198c6
3198c6
319ffe
319806
3f8080
318040
318360
318368
318b04
318b06
219b13
219b13
61b318
47b3f8
8301f0
ENDCHAR
STARTCHAR ch-368
ENCODING 368
SWIDTH 1000 0
DWIDTH 24 0
BBX 24 24 0 -3
BITMAP
230006
3fffff
330240
330240
33224c
333ffe
33324c
3f324c
33324c
33324c
333ffc
33300c
330380
3f0306
33ffff
330630
330c30
330c60
231b60
2318c0
6301b0
43031c
4f0c0e
867006
ENDCHAR
STARTCHAR ch-369
ENCODING 369
SWIDTH 1000 0
DWIDTH 24 0
BBX 24 24 0 -3
BITMAP
2600e0
3e30c0
27f0c4
2637fe
2620c4
2660c4
266fff
3e40c4
2640c4
26c7fc
26f0c4
2610c0
2610c4
3e17fe
2610c0
26b0c0
26a0c2
26afff
2660c0
2670c0
6658c0
46ce00
5e87ff
8d01fe
ENDCHAR
STARTCHAR ch-372
ENCODING 372
SWIDTH 1000 0
DWIDTH 24 0
BBX 24 24 0 -3
BITMAP
2180e0
3fc0c0
3180c0
3190c6
319fff
3198c6
3198c6
3f98c6
319ffe
3198c6
3198c6
3198c6
3198c6
3f9ffe
3199a6
3181a0
3181a0
318330
318310
218218
21861c
61840f
47880e
833006
ENDCHAR
STARTCHAR ch-376
ENCODING 376
SWIDTH 1000 0
DWIDTH 24 0
BBX 24 24 0 -3
BITMAP
218818
3fcffc
318c18
318c18
318ff8
318c18
318c18
3f8c18
318ff8
318000
318006
31ffff
318600
3f8406
318fff
319926
31b326
31c266
218446
218886
61b10e
41820c
4f8c7c
830018
ENDCHAR
STARTCHAR ch-377
ENCODING 377
SWIDTH 1000 0
DWIDTH 24 0
BBX 24 24 0 -3
BITMAP
218800
3fce00
318c06
319fff
319000
31a000
318ffc
3f8c0c
318c0c
318ffc
318c0c
318c0c
318ffc
3f8300
318600
3187fc
318c18
318a30
319160
31a0c0
2181e0
61833f
478c1e
833006
ENDCHAR
STARTCHAR ch-378
ENCODING 378
SWIDTH 1000 0
DWIDTH 24 0
BBX 24 24 0 -3
BITMAP
000200
218380
3fd318
319ffc
319818
319818
319ff8
319818
3f9818
319818
319ff8
318184
318187
318d86
3fff8c
318dd0
318da0
3189b0
319998
31919c
21a18f
61c186
478f80
830300
ENDCHAR
STARTCHAR ch-383
ENCODING 383
SWIDTH 1000 0
DWIDTH 24 0
BBX 24 24 0 -3
BITMAP
26020c
3f43fe
26230c
26330c
26330c
2633fc
26030c
3e030c
26030c
2603fc
263308
27fb0e
26330c
3e3348
263330
263318
26332c
263fce
263706
263000
666800
47c7ff
5ec1fe
8c8000
ENDCHAR
STARTCHAR ch-384
ENCODING 384
SWIDTH 1000 0
DWIDTH 24 0
BBX 24 24 0 -3
BITMAP
2301c0
3f8180
330186
337fff
330810
330418
332610
3f2226
333fff
336004
336388
330300
330306
3f7fff
330600
330618
3307fc
330c18
330c18
230818
231838
631030
4f21f0
864060
ENDCHAR
STARTCHAR ch-386
ENCODING 386
SWIDTH 1000 0
DWIDTH 24 0
BBX 24 24 0 -3
BITMAP
0e0200
0c6306
fff7ff
0c0410
0c0878
0fd7e2
18c687
18c64c
10c630
31861c
278fcf
430606
800000
0ffff0
0c0030
0c0030
0ffff0
0c0030
0c0030
0ffff0
0c0030
0c0030
0c01f0
0c0060
ENDCHAR
STARTCHAR ch-387
ENCODING 387
SWIDTH 1000 0
DWIDTH 24 0
BBX 24 24 0 -3
BITMAP
231018
3f9ffc
331818
331818
331818
331ff8
331818
3f1818
331818
331ff8
331818
330000
330000
3f200c
333ffe
33324c
33324c
33324c
33324c
23324c
23324c
63324c
4fffff
860000
ENDCHAR
STARTCHAR ch-392
ENCODING 392
SWIDTH 1000 0
DWIDTH 24 0
BBX 24 24 0 -3
BITMAP
230006
3fbfff
330000
330818
330ffc
330c18
330c18
3f0c18
330ff8
330000
332006
333fff
333266
3f3266
333666
33343e
333806
333006
3337f6
233186
233186
633186
4f319e
86318c
ENDCHAR
STARTCHAR ch-394
ENCODING 394
SWIDTH 1000 0
DWIDTH 24 0
BBX 24 24 0 -3
BITMAP
2180e8
3fc0c6
3180c2
31bfff
3180c0
3190c6
319fff
3f98c6
3198c6
319ffe
3198c6
3198c6
319ffe
3f9806
318018
318018
31bfff
318818
318618
218318
218318
618018
4780f8
830030
ENDCHAR
STARTCHAR ch-399
ENCODING 399
SWIDTH 1000 0
DWIDTH 24 0
BBX 24 24 0 -3
BITMAP
001c00
00180c
7ffffe
000000
03ffc0
020040
23ffc0
200006
3fffff
600006
63ffc4
c20048
c3ffc0
080030
0ffff8
0c0030
0ffff0
0c0030
0c0030
0ffff0
0c0030
0c0030
0c01f0
0c0060
ENDCHAR
STARTCHAR ch-403
ENCODING 403
SWIDTH 1000 0
DWIDTH 24 0
BBX 24 24 0 -3
BITMAP
230800
3f8e00
330c0c
331ffe
331800
333ff8
332c18
3f4c18
330ff8
330c18
330c18
330ff8
330006
3f7fff
330c00
330806
331fff
331246
332646
234486
23088e
63310c
4f067c
860018
ENDCHAR
STARTCHAR ch-405
ENCODING 405
SWIDTH 1000 0
DWIDTH 24 0
BBX 24 24 0 -3
BITMAP
224006
3f7fff
326006
3260b6
326096
326086
326ff6
3e6086
326086
326e96
326a96
326ab6
326aa6
3e6ae6
326e46
326056
3262d6
326cb6
32693e
226216
226006
626006
4e7ffe
866006
ENDCHAR
STARTCHAR ch-410
ENCODING 410
SWIDTH 1000 0
DWIDTH 24 0
BBX 24 24 0 -3
BITMAP
001800
001ff0
101806
1fffff
181806
181fc4
1bf810
181818
180ff8
180000
19fffc
190204
19fffc
190204
19fffc
180000
18fff8
188008
30fff8
308008
20fff8
608008
408078
808030
ENDCHAR
STARTCHAR ch-412
ENCODING 412
SWIDTH 1000 0
DWIDTH 24 0
BBX 24 24 0 -3
BITMAP
218738
3fc630
318632
31ffff
318630
318630
319ffc
3f980c
31980c
319ffc
31980c
31980c
31980c
3f9ffc
318180
318186
31ffff
318180
218340
218320
618638
418c1f
4f980e
836006
ENDCHAR
STARTCHAR ch-413
ENCODING 413
SWIDTH 1000 0
DWIDTH 24 0
BBX 24 24 0 -3
BITMAP
230380
3f8300
330306
33ffff
330740
330f20
331b30
3f331c
33630f
338386
3306c0
330c60
331838
3f339f
33c326
333330
331b40
330300
330b60
23f31c
63630e
434306
4f1f00
860600
ENDCHAR
STARTCHAR ch-416
ENCODING 416
SWIDTH 1000 0
DWIDTH 24 0
BBX 24 24 0 -3
BITMAP
23060c
3ffffe
33468c
3366cc
33264c
330e1c
33366c
3fe7cc
33468c
33000c
330300
330680
330c60
3f3138
33c39f
330646
3318e0
336190
330638
231870
2300e0
630380
4f0e00
863000
ENDCHAR
STARTCHAR ch-419
ENCODING 419
SWIDTH 1000 0
DWIDTH 24 0
BBX 24 24 0 -3
BITMAP
2301c0
3fa186
333fff
336466
336764
330660
330c7e
3f183e
336000
330000
333ffe
330300
330210
3f040c
333ff6
331e06
3301c0
33018c
333ffe
230180
230180
630186
4f7fff
860000
ENDCHAR
STARTCHAR ch-420
ENCODING 420
SWIDTH 1000 0
DWIDTH 24 0
BBX 24 24 0 -3
BITMAP
23000c
3fbffe
330180
332186
333fff
336186
336184
3f1db8
330180
330180
333dbc
330180
330180
3f000c
333ffe
33000c
33000c
33000c
333ffc
23000c
23000c
63000c
4f3ffc
86000c
ENDCHAR
STARTCHAR ch-424
ENCODING 424
SWIDTH 1000 0
DWIDTH 24 0
BBX 24 24 0 -3
BITMAP
261c08
3f180e
26190c
26ff98
261818
261830
27ffe4
3e0047
260006
267f0c
26410c
264118
264110
3e7f24
260207
268386
264306
26620c
26640c
260398
66fe10
467020
5e4040
8c0080
ENDCHAR
STARTCHAR ch-425
ENCODING 425
SWIDTH 1000 0
DWIDTH 24 0
BBX 24 24 0 -3
BITMAP
230070
3f8064
330066
330062
337fff
330060
330060
3f3f60
330060
337fa0
330020
330030
333f30
3f2130
333f30
332110
333f12
33211a
333f1a
23000a
23120e
631986
4f30c7
8640c3
ENDCHAR
STARTCHAR ch-432
ENCODING 432
SWIDTH 1000 0
DWIDTH 24 0
BBX 24 24 0 -3
BITMAP
230018
3f81fc
333f80
330188
33218c
331988
330992
3f7fff
3303a0
3307a0
330590
330998
33118f
3f6186
330000
331ff8
331918
331918
331ff8
231918
231918
631918
4f1ff8
861818
ENDCHAR
STARTCHAR ch-435
ENCODING 435
SWIDTH 1000 0
DWIDTH 24 0
BBX 24 24 0 -3
BITMAP
231020
3f8c38
330630
330644
333ffe
330180
330188
3f1ffc
330180
330184
333ffe
331198
330990
3f0da2
337fff
330000
331018
331ffc
331818
331818
231818
631818
4f1ff8
861818
ENDCHAR
STARTCHAR ch-437
ENCODING 437
SWIDTH 1000 0
DWIDTH 24 0
BBX 24 24 0 -3
BITMAP
230e38
3f8c32
337fff
330c30
330c30
3301c0
330186
3f7fff
330000
3311c8
33198c
331188
331188
3f2994
332592
3345a2
330180
330186
337fff
230180
230180
630180
4f0180
860180
ENDCHAR
STARTCHAR ch-440
ENCODING 440
SWIDTH 1000 0
DWIDTH 24 0
BBX 24 24 0 -3
BITMAP
2300e0
3f40c6
3337ff
331880
3319fe
331910
330210
3f05ff
330000
3301fe
331986
337d86
3319fe
3f1986
331986
3319fe
331986
331986
33199e
23198c
231800
63f7ff
4f61fe
864000
ENDCHAR
STARTCHAR ch-442
ENCODING 442
SWIDTH 1000 0
DWIDTH 24 0
BBX 24 24 0 -3
BITMAP
000e00
200c06
3fffff
308420
30e630
31cc40
318ffe
339840
35affc
398840
318ffc
318840
318fff
300000
31fff8
318018
31fff8
318018
218018
21fff8
618018
418018
8180f8
018030
ENDCHAR
STARTCHAR ch-445
ENCODING 445
SWIDTH 1000 0
DWIDTH 24 0
BBX 24 24 0 -3
BITMAP
230800
3f8c60
331ff0
331840
333086
337fff
33b330
3f3330
33323e
33341e
333800
3333f8
333000
3f3ffe
333000
3333f8
332000
3323f8
336000
2347fc
23860c
63060c
4f07fc
86060c
ENDCHAR
STARTCHAR ch-446
ENCODING 446
SWIDTH 1000 0
DWIDTH 24 0
BBX 24 24 0 -3
BITMAP
230180
3f8180
330340
330630
330c1c
331bef
336006
3f0000
333ffe
333086
333496
3332a6
333086
3f3ffe
330000
33100c
331ffe
33180c
33180c
231ffc
23180c
63180c
4f1ffc
86180c
ENDCHAR
STARTCHAR ch-447
ENCODING 447
SWIDTH 1000 0
DWIDTH 24 0
BBX 24 24 0 -3
BITMAP
230330
3f8220
331ffc
331224
331224
331ffc
331224
3f1224
331ffc
330000
333fff
333000
3333f8
3f3000
333006
333fff
332640
332644
232626
236628
634610
43bf98
4f1c0f
861006
ENDCHAR
STARTCHAR ch-448
ENCODING 448
SWIDTH 1000 0
DWIDTH 24 0
BBX 24 24 0 -3
BITMAP
206230
3ff3f8
306330
306330
3fe63f
24841f
3fe800
2487fc
248118
7ff0b0
480060
8ce1b8
18661f
200006
0ffff0
0c0030
0ffff0
0c0030
0c0030
0ffff0
0c0030
0c0030
0c01f0
0c0060
ENDCHAR
STARTCHAR ch-450
ENCODING 450
SWIDTH 1000 0
DWIDTH 24 0
BBX 24 24 0 -3
BITMAP
1060e0
1ff0c4
186ffe
186210
1fe318
180112
181fff
1fe0c0
3c60c4
2c6ffe
2c60c0
4fe0c0
8c60c0
000000
0ffff0
0c0030
0ffff0
0c0030
0c0030
0ffff0
0c0030
0c0030
0c01f0
0c0060
ENDCHAR
STARTCHAR ch-454
ENCODING 454
SWIDTH 1000 0
DWIDTH 24 0
BBX 24 24 0 -3
BITMAP
2301c0
3f8180
330184
333ffe
330810
330410
330422
3f7fff
330000
331ffc
33180c
33180c
331ffc
3f180c
33180c
331ffc
330000
330180
3316c8
2316c6
632613
63661b
4f67f8
8603f0
ENDCHAR
STARTCHAR ch-456
ENCODING 456
SWIDTH 1000 0
DWIDTH 24 0
BBX 24 24 0 -3
BITMAP
230e70
3f8c66
337fff
330c60
330c60
331ff8
331818
3f1818
331ff8
331818
331818
331ff8
330600
3f0c06
331fff
333886
33d9c6
331e06
331846
231866
231fee
630fcc
4f003c
860018
ENDCHAR
STARTCHAR ch-457
ENCODING 457
SWIDTH 1000 0
DWIDTH 24 0
BBX 24 24 0 -3
BITMAP
230300
3f8300
330680
330640
330c60
330838
33101f
3f2fee
33c006
330000
33264c
333f7e
33264c
3f264c
33264c
333e7c
330000
331020
331c38
231830
231830
63366c
4f2246
864086
ENDCHAR
STARTCHAR ch-461
ENCODING 461
SWIDTH 1000 0
DWIDTH 24 0
BBX 24 24 0 -3
BITMAP
2300e0
3f80c0
3300c6
337fff
330240
330166
333d5c
3f1494
331494
333496
33249a
332cb3
334082
3f180c
33180c
331ffc
33180c
33180c
331ffc
23180c
23100c
63300c
4f200c
86400c
ENDCHAR
STARTCHAR ch-465
ENCODING 465
SWIDTH 1000 0
DWIDTH 24 0
BBX 24 24 0 -3
BITMAP
23000c
3fbffe
330180
332186
333fff
336186
336184
3f1db8
330180
333dbc
330180
330000
337fff
3f0180
332106
333fff
333246
333246
333246
233246
233246
633246
4f325e
86300c
ENDCHAR
STARTCHAR ch-467
ENCODING 467
SWIDTH 1000 0
DWIDTH 24 0
BBX 24 24 0 -3
BITMAP
260e70
3f0c60
260c66
26ffff
260c60
260c08
260066
3e4062
267fff
264060
265fe0
265264
265227
3e5fa6
2650a4
2650ac
265fa8
265238
265212
665fba
46d06a
4680ce
5e8307
8d1c03
ENDCHAR
STARTCHAR ch-472
ENCODING 472
SWIDTH 1000 0
DWIDTH 24 0
BBX 24 24 0 -3
BITMAP
261108
3f198c
263318
264420
262210
263318
261108
3e7ffc
26664c
26618c
26630c
2664cc
267ffc
3e0000
264218
265298
264a58
264218
26529a
664a5a
46420a
47ffce
5ee707
8c8403
ENDCHAR
STARTCHAR ch-473
ENCODING 473
SWIDTH 1000 0
DWIDTH 24 0
BBX 24 24 0 -3
BITMAP
230e38
3f8c30
330c36
337fff
330c30
330c30
330ff0
3f0000
330810
330bd2
337a57
330a58
330a50
3f0a52
331a53
33ebdf
33480e
330000
330000
231248
231224
633226
4f6633
866633
ENDCHAR
STARTCHAR ch-474
ENCODING 474
SWIDTH 1000 0
DWIDTH 24 0
BBX 24 24 0 -3
BITMAP
2301c0
3f8188
3301fc
332182
333fff
332206
3323c4
3f2e08
3321f8
332000
3327f8
332488
332488
3f27f8
332488
332488
3327f8
336000
334ffc
234924
238924
630924
4f3fff
860000
ENDCHAR
STARTCHAR ch-479
ENCODING 479
SWIDTH 1000 0
DWIDTH 24 0
BBX 24 24 0 -3
BITMAP
260e70
3f0c60
260c66
26ffff
260c60
260c04
260036
3e2032
263fff
27a030
26ffb0
26e432
262433
3e3f32
266136
26e134
27bf1c
26a418
262412
663fba
46606a
4640ce
5e4307
8c8c03
ENDCHAR
STARTCHAR ch-480
ENCODING 480
SWIDTH 1000 0
DWIDTH 24 0
BBX 24 24 0 -3
BITMAP
080008
0c7e0c
500050
64ff64
2e002e
087e08
120012
ff7eff
690069
087e08
2a424c
39426a
697e4b
880089
001800
1ffff8
183018
186f18
198198
181818
183818
186718
198378
180030
ENDCHAR
STARTCHAR ch-483
ENCODING 483
SWIDTH 1000 0
DWIDTH 24 0
BBX 24 24 0 -3
BITMAP
000000
20000c
3ffffe
301800
301800
301800
301800
301830
3ffff8
300030
300030
300030
300030
300030
3ffff0
301830
301800
301800
301800
301800
301806
3fffff
300000
300000
ENDCHAR
STARTCHAR ch-485
ENCODING 485
SWIDTH 1000 0
DWIDTH 24 0
BBX 24 24 0 -3
BITMAP
0001c0
406180
7ff180
630180
630180
630180
630180
630180
7fe180
606180
606340
606340
606340
7fe340
630220
630620
630620
630430
630c10
636818
7ff81c
60100f
00200e
00c006
ENDCHAR
STARTCHAR ch-487
ENCODING 487
SWIDTH 1000 0
DWIDTH 24 0
BBX 24 24 0 -3
BITMAP
0001d0
00018c
00018c
040180
47fffe
260180
360180
36ff80
369180
069188
06918e
06fd8c
0e848c
1684c8
3684d8
e6fc50
669070
4c9022
0c9072
08fed2
18009a
10010e
200207
400c03
ENDCHAR
STARTCHAR ch-488
ENCODING 488
SWIDTH 1000 0
DWIDTH 24 0
BBX 24 24 0 -3
BITMAP
000400
40c700
7fe600
660c0c
660ffe
661000
662408
6607fc
7fc408
60c408
60c408
60c7f8
60c408
60c000
7fd122
661fbf
661122
661122
661122
661122
66d122
7ff122
601f3e
601122
ENDCHAR
STARTCHAR ch-490
ENCODING 490
SWIDTH 1000 0
DWIDTH 24 0
BBX 24 24 0 -3
BITMAP
002000
003800
003000
082030
0ffff8
0c0030
0c0030
0c0030
0c0030
0c0030
0ffff0
0c0030
0c0030
0c0030
0c0030
0c0030
0ffff0
0c0030
0c0030
0c0030
0c0030
0c0030
0ffff0
0c0030
ENDCHAR
STARTCHAR ch-493
ENCODING 493
SWIDTH 1000 0
DWIDTH 24 0
BBX 24 24 0 -3
BITMAP
002000
003800
083030
0ffff8
0c0030
0c0030
0ffff0
0c0030
0c0030
0ffff0
0c0030
0c0030
0c0030
0ffff0
0c0030
003800
003006
ffffff
006400
00c300
0181c0
0300fe
0c003c
70000c
ENDCHAR
STARTCHAR ch-499
ENCODING 499
SWIDTH 1000 0
DWIDTH 24 0
BBX 24 24 0 -3
BITMAP
000000
000006
ffffff
003000
003000
006080
006060
004030
0083d8
3ffc18
1f0018
100000
001c00
001800
001800
001830
1ffff8
001800
001800
001800
001800
001806
ffffff
000000
ENDCHAR
STARTCHAR ch-500
ENCODING 500
SWIDTH 1000 0
DWIDTH 24 0
BBX 24 24 0 -3
BITMAP
000200
003380
fffb00
080300
0e0300
0c8206
0847ff
106420
ffe438
786a30
400a30
071260
060160
060140
0661c0
fff080
0601c0
060140
060360
066230
078438
fe081f
70100e
406006
ENDCHAR
STARTCHAR ch-506
ENCODING 506
SWIDTH 1000 0
DWIDTH 24 0
BBX 24 24 0 -3
BITMAP
001c00
001830
1ffff8
001800
07ffe0
000000
03ffc0
020040
03ffc0
200006
3fffff
600006
e7ffe4
c06108
0040c0
0fff60
07e060
041c00
001830
1ffff8
001800
001806
ffffff
000000
ENDCHAR
STARTCHAR ch-507
ENCODING 507
SWIDTH 1000 0
DWIDTH 24 0
BBX 24 24 0 -3
BITMAP
000380
018300
ffc304
183ffe
100300
220308
211ffc
ff8640
798442
407fff
1c0820
1818b0
1913dc
ffaf0f
184306
180310
183ff8
180740
1f0f20
fc1b30
70331c
40c30f
030306
000300
ENDCHAR
STARTCHAR ch-508
ENCODING 508
SWIDTH 1000 0
DWIDTH 24 0
BBX 24 24 0 -3
BITMAP
000000
006000
00f000
23800c
3c03fe
30000c
30000c
30000c
30000c
30000c
30000c
31800c
3fc3fc
30000c
30000c
30000c
30000c
30000c
30000c
30000c
30000c
3ffffc
30000c
30000c
ENDCHAR
STARTCHAR ch-510
ENCODING 510
SWIDTH 1000 0
DWIDTH 24 0
BBX 24 24 0 -3
BITMAP
001c00
001800
011800
27980c
3c19fe
30180c
30180c
30180c
30180c
3f99fc
30180c
30180c
30180c
30180c
3f99fc
30340c
003400
006200
006300
00c1c0
0180f0
07007f
1c001e
e00006
ENDCHAR
ENDFONT
